<svg xmlns="http://www.w3.org/2000/svg" viewBox="0 0 92.56 94.47"><path d="M92.56 88.81l-15.2-15.2L65.25 61.5 32.49 28.74 18.21 14.46 5.66 1.91 0 7.56 18.21 25.77V90.69H46.3q10.81 0 18.38-3.77A26.83 26.83 0 0 0 73 80.58L86.9 94.47ZM60.44 72.58Q55.57 77 46.72 77H32.49V40.06L62.56 70.12A14.14 14.14 0 0 1 60.44 72.58Z"/><path d="M46.72 17.47q8.84 0 13.72 4.42t4.87 12.55v15.8l14.4 14.4a43.94 43.94 0 0 0 .3-5.09V34.92q0-9.85-3.94-16.85A25.57 25.57 0 0 0 64.56 7.43Q57 3.79 46.36 3.78H18.84L32.53 17.47Z"/></svg>
